<?xml version="1.0" encoding="UTF-8" standalone="no"?>
<!-- Created with Inkscape (http://www.inkscape.org/) -->

<svg
   width="512"
   height="512"
   viewBox="0 0 512 512"
   version="1.1"
   id="svg1"
   xml:space="preserve"
   inkscape:version="1.4.2 (f4327f4, 2025-05-13)"
   sodipodi:docname="icon.svg"
   inkscape:export-filename="icon.png"
   inkscape:export-xdpi="48"
   inkscape:export-ydpi="48"
   xmlns:inkscape="http://www.inkscape.org/namespaces/inkscape"
   xmlns:sodipodi="http://sodipodi.sourceforge.net/DTD/sodipodi-0.dtd"
   xmlns="http://www.w3.org/2000/svg"
   xmlns:svg="http://www.w3.org/2000/svg"><sodipodi:namedview
     id="namedview1"
     pagecolor="#ffffff"
     bordercolor="#000000"
     borderopacity="0.25"
     inkscape:showpageshadow="2"
     inkscape:pageopacity="0.0"
     inkscape:pagecheckerboard="0"
     inkscape:deskcolor="#d1d1d1"
     inkscape:document-units="px"
     inkscape:zoom="1.5527344"
     inkscape:cx="207.3761"
     inkscape:cy="279.82893"
     inkscape:window-width="2400"
     inkscape:window-height="1261"
     inkscape:window-x="2391"
     inkscape:window-y="-9"
     inkscape:window-maximized="1"
     inkscape:current-layer="layer1" /><defs
     id="defs1" /><g
     inkscape:label="icon"
     inkscape:groupmode="layer"
     id="layer1"><rect
       style="fill:#121212;fill-rule:evenodd;fill-opacity:1"
       id="rect2"
       width="512"
       height="512"
       x="0"
       y="0"
       ry="39.285534"
       inkscape:label="bg" /><rect
       style="fill:#236192;fill-opacity:1;fill-rule:evenodd;stroke-width:1.77889"
       id="rect3"
       width="159.03841"
       height="118.1557"
       x="275.61453"
       y="86.760315"
       ry="37.890427"
       inkscape:label="tab" /><path
       id="rect1"
       style="fill:#ea7600;fill-opacity:1;fill-rule:evenodd;stroke-width:1.42124"
       d="m 139.92361,124.74634 h 294.72938 c 0,0 0.37014,143.708 0.37014,207.4147 0,34.87251 -28.07425,62.94676 -62.94674,62.94676 H 139.92361 c -34.87249,0 -62.946745,-28.07425 -62.946745,-62.94676 V 187.69309 c 0,-34.87249 28.074255,-62.94675 62.946745,-62.94675 z"
       sodipodi:nodetypes="scssssss"
       inkscape:label="folder" /><path
       d="m 345.88907,268.29349 c -1.06096,-7.46604 -3.6469,-14.54633 -7.68826,-21.04199 -3.52439,-5.66897 -8.04684,-10.71085 -13.44465,-14.99612 l 0.0146,-0.0134 -56.69147,-43.54235 a 1.6169265,1.6169265 0 0 0 -0.12781,-0.10161 c -1.88474,-1.44387 -4.43672,-2.23837 -7.18287,-2.23837 -2.74971,0 -5.40147,0.79626 -7.46285,2.24297 -2.2164,1.54826 -3.48334,3.6026 -3.57181,5.7893 -0.0811,2.04017 0.89215,4.00321 2.74761,5.53342 3.64857,2.87891 7.28908,5.82045 10.93451,8.76553 3.53782,2.85943 7.18325,5.80415 10.81098,8.67103 l -69.43792,-0.0472 c -7.94096,0 -13.34805,3.72895 -14.46033,9.97194 -0.48872,2.73451 0.37371,5.74116 2.30171,8.04393 2.04548,2.44114 5.01533,3.7877 8.36208,3.7877 l 5.29349,0.004 c 7.3128,0 14.6578,-0.018 21.9929,-0.0358 l 6.99499,-0.0163 -63.02085,46.62439 -0.2502,0.18296 c -3.52015,2.69807 -5.82469,6.4808 -6.32189,10.37749 -0.3769,2.95216 0.31176,5.64986 1.9924,7.80435 2.00302,2.56853 5.13035,3.98126 8.80656,3.98126 3.61146,0 7.29652,-1.3685 10.38104,-3.86024 l 34.03224,-27.8512 c -0.14545,1.36001 -0.32204,3.35525 -0.30187,4.80336 0.0382,2.29286 0.77432,6.89344 1.93969,10.62839 2.40786,7.6759 6.4638,14.69886 12.05456,20.86646 5.81726,6.41676 12.90216,11.50464 21.05654,15.11892 8.62077,3.81283 17.88805,5.74826 27.54541,5.74826 h 0.0895 c 9.68813,-0.0233 18.9848,-1.98958 27.6335,-5.84593 8.1678,-3.6571 15.24953,-8.76552 21.04482,-15.1812 5.58369,-6.19911 9.63398,-13.23375 12.03725,-20.90326 a 53.481374,53.481374 0 0 0 2.27054,-11.67945 c 0.29696,-3.83263 0.16915,-7.73252 -0.37401,-11.59098 z m -61.99562,36.79013 c -21.28336,0 -38.54262,-15.4392 -38.54262,-34.48559 0,-19.04429 17.25963,-34.48347 38.54262,-34.48347 21.28362,0 38.54114,15.43918 38.54114,34.48347 7.3e-4,19.04639 -17.25752,34.48559 -38.54114,34.48559 z m 22.22682,-37.51596 c 0.31385,5.68454 -1.95668,10.96283 -5.944,14.87013 -4.05597,3.98056 -9.84349,6.48081 -16.31541,6.48081 -6.4691,0 -12.25772,-2.50025 -16.31505,-6.48081 -3.98549,-3.9073 -6.25146,-9.18488 -5.93934,-14.86553 0.30572,-5.52177 2.99919,-10.3959 7.05617,-13.84703 3.98941,-3.39347 9.34633,-5.46373 15.19785,-5.46373 5.85235,0 11.20772,2.07098 15.19749,5.46373 4.05916,3.45113 6.75328,8.32173 7.06229,13.84243 z"
       id="path1"
       style="fill:#ffffff;fill-opacity:1;stroke-width:0.35389"
       inkscape:label="blender" /></g></svg>
