<?xml version="1.0" encoding="UTF-8" standalone="no"?>
<!-- Created with Inkscape (http://www.inkscape.org/) -->

<svg
   width="1920"
   height="1080"
   viewBox="0 0 1920 1080"
   version="1.1"
   id="svg1"
   inkscape:version="1.4.2 (f4327f4, 2025-05-13)"
   sodipodi:docname="banner.svg"
   xml:space="preserve"
   inkscape:export-filename="banner.png"
   inkscape:export-xdpi="96"
   inkscape:export-ydpi="96"
   xmlns:inkscape="http://www.inkscape.org/namespaces/inkscape"
   xmlns:sodipodi="http://sodipodi.sourceforge.net/DTD/sodipodi-0.dtd"
   xmlns="http://www.w3.org/2000/svg"
   xmlns:svg="http://www.w3.org/2000/svg"><sodipodi:namedview
     id="namedview1"
     pagecolor="#ffffff"
     bordercolor="#000000"
     borderopacity="0.25"
     inkscape:showpageshadow="2"
     inkscape:pageopacity="0.0"
     inkscape:pagecheckerboard="false"
     inkscape:deskcolor="#d1d1d1"
     inkscape:document-units="px"
     inkscape:zoom="0.52050916"
     inkscape:cx="721.40901"
     inkscape:cy="494.70791"
     inkscape:window-width="2400"
     inkscape:window-height="1261"
     inkscape:window-x="2391"
     inkscape:window-y="-9"
     inkscape:window-maximized="1"
     inkscape:current-layer="layer1" /><defs
     id="defs1"><rect
       x="280.4946"
       y="550.87085"
       width="455.32339"
       height="380.39673"
       id="rect17" /><marker
       style="overflow:visible"
       id="RoundedArrow"
       refX="0"
       refY="0"
       orient="auto-start-reverse"
       inkscape:stockid="Rounded arrow"
       markerWidth="1"
       markerHeight="1"
       viewBox="0 0 1 1"
       inkscape:isstock="true"
       inkscape:collect="always"
       preserveAspectRatio="xMidYMid"><path
         transform="scale(0.7)"
         d="m -0.21114562,-4.1055728 6.42229122,3.21114561 a 1,1 90 0 1 0,1.78885438 L -0.21114562,4.1055728 A 1.236068,1.236068 31.717474 0 1 -2,3 v -6 a 1.236068,1.236068 148.28253 0 1 1.78885438,-1.1055728 z"
         style="fill:context-stroke;fill-rule:evenodd;stroke:none"
         id="path17" /></marker><inkscape:path-effect
       effect="bspline"
       id="path-effect11"
       is_visible="true"
       lpeversion="1.3"
       weight="33.333333"
       steps="2"
       helper_size="0"
       apply_no_weight="true"
       apply_with_weight="true"
       only_selected="false"
       uniform="false" /><rect
       x="226.7011"
       y="589.80713"
       width="455.32339"
       height="380.39673"
       id="rect5" /><rect
       x="330.44568"
       y="280.49457"
       width="1229.5653"
       height="224.77991"
       id="rect2" /><rect
       x="391.92395"
       y="255.51904"
       width="1129.6631"
       height="220.93752"
       id="rect1" /></defs><g
     inkscape:label="banner"
     inkscape:groupmode="layer"
     id="layer1"><rect
       style="fill:#121212;fill-rule:evenodd;fill-opacity:1"
       id="rect11"
       width="1920"
       height="1080"
       x="0"
       y="0"
       inkscape:label="bg" /><text
       xml:space="preserve"
       style="font-size:192px;line-height:1.25;font-family:Lato;-inkscape-font-specification:Lato;fill:#ffffff;fill-opacity:1"
       x="704.98242"
       y="263.4249"
       id="text3"
       inkscape:label="title"><tspan
         sodipodi:role="line"
         id="tspan3"
         x="704.98242"
         y="263.4249"
         style="font-style:normal;font-variant:normal;font-weight:bold;font-stretch:normal;font-family:Inter;-inkscape-font-specification:'Inter Bold'">BlenDir</tspan></text><g
       inkscape:label="icon"
       id="layer1-8"
       transform="translate(203.51772,-2.2277005)"><rect
         style="fill:#236192;fill-opacity:1;fill-rule:evenodd;stroke-width:1.77889"
         id="rect3"
         width="159.03841"
         height="118.1557"
         x="275.61453"
         y="86.760315"
         ry="37.890427"
         inkscape:label="tab" /><path
         id="rect1-2"
         style="fill:#ea7600;fill-opacity:1;fill-rule:evenodd;stroke-width:1.42124"
         d="m 139.92361,124.74634 h 294.72938 c 0,0 0.37014,143.708 0.37014,207.4147 0,34.87251 -28.07425,62.94676 -62.94674,62.94676 H 139.92361 c -34.87249,0 -62.946745,-28.07425 -62.946745,-62.94676 V 187.69309 c 0,-34.87249 28.074255,-62.94675 62.946745,-62.94675 z"
         sodipodi:nodetypes="scssssss"
         inkscape:label="folder" /><path
         d="m 345.88907,268.29349 c -1.06096,-7.46604 -3.6469,-14.54633 -7.68826,-21.04199 -3.52439,-5.66897 -8.04684,-10.71085 -13.44465,-14.99612 l 0.0146,-0.0134 -56.69147,-43.54235 a 1.6169265,1.6169265 0 0 0 -0.12781,-0.10161 c -1.88474,-1.44387 -4.43672,-2.23837 -7.18287,-2.23837 -2.74971,0 -5.40147,0.79626 -7.46285,2.24297 -2.2164,1.54826 -3.48334,3.6026 -3.57181,5.7893 -0.0811,2.04017 0.89215,4.00321 2.74761,5.53342 3.64857,2.87891 7.28908,5.82045 10.93451,8.76553 3.53782,2.85943 7.18325,5.80415 10.81098,8.67103 l -69.43792,-0.0472 c -7.94096,0 -13.34805,3.72895 -14.46033,9.97194 -0.48872,2.73451 0.37371,5.74116 2.30171,8.04393 2.04548,2.44114 5.01533,3.7877 8.36208,3.7877 l 5.29349,0.004 c 7.3128,0 14.6578,-0.018 21.9929,-0.0358 l 6.99499,-0.0163 -63.02085,46.62439 -0.2502,0.18296 c -3.52015,2.69807 -5.82469,6.4808 -6.32189,10.37749 -0.3769,2.95216 0.31176,5.64986 1.9924,7.80435 2.00302,2.56853 5.13035,3.98126 8.80656,3.98126 3.61146,0 7.29652,-1.3685 10.38104,-3.86024 l 34.03224,-27.8512 c -0.14545,1.36001 -0.32204,3.35525 -0.30187,4.80336 0.0382,2.29286 0.77432,6.89344 1.93969,10.62839 2.40786,7.6759 6.4638,14.69886 12.05456,20.86646 5.81726,6.41676 12.90216,11.50464 21.05654,15.11892 8.62077,3.81283 17.88805,5.74826 27.54541,5.74826 h 0.0895 c 9.68813,-0.0233 18.9848,-1.98958 27.6335,-5.84593 8.1678,-3.6571 15.24953,-8.76552 21.04482,-15.1812 5.58369,-6.19911 9.63398,-13.23375 12.03725,-20.90326 a 53.481374,53.481374 0 0 0 2.27054,-11.67945 c 0.29696,-3.83263 0.16915,-7.73252 -0.37401,-11.59098 z m -61.99562,36.79013 c -21.28336,0 -38.54262,-15.4392 -38.54262,-34.48559 0,-19.04429 17.25963,-34.48347 38.54262,-34.48347 21.28362,0 38.54114,15.43918 38.54114,34.48347 7.3e-4,19.04639 -17.25752,34.48559 -38.54114,34.48559 z m 22.22682,-37.51596 c 0.31385,5.68454 -1.95668,10.96283 -5.944,14.87013 -4.05597,3.98056 -9.84349,6.48081 -16.31541,6.48081 -6.4691,0 -12.25772,-2.50025 -16.31505,-6.48081 -3.98549,-3.9073 -6.25146,-9.18488 -5.93934,-14.86553 0.30572,-5.52177 2.99919,-10.3959 7.05617,-13.84703 3.98941,-3.39347 9.34633,-5.46373 15.19785,-5.46373 5.85235,0 11.20772,2.07098 15.19749,5.46373 4.05916,3.45113 6.75328,8.32173 7.06229,13.84243 z"
         id="path1"
         style="fill:#ffffff;fill-opacity:1;stroke-width:0.35389"
         inkscape:label="blender" /></g><text
       xml:space="preserve"
       style="font-style:normal;font-variant:normal;font-weight:600;font-stretch:normal;font-size:48px;line-height:1.25;font-family:Inter;-inkscape-font-specification:'Inter Semi-Bold';fill:#ffffff;fill-opacity:1"
       x="715.05011"
       y="335.4765"
       id="text1"
       inkscape:label="subtitle"><tspan
         sodipodi:role="line"
         id="tspan1"
         x="715.05011"
         y="335.4765">Automatic custom project structure creator</tspan></text><g
       id="g17"
       inkscape:label="folders"><g
         inkscape:label="folder"
         id="g7"
         transform="matrix(0.51708023,0,0,0.51708023,1223.6711,407.44968)"><rect
           style="fill:#236192;fill-opacity:1;fill-rule:evenodd;stroke-width:1.77889"
           id="rect6"
           width="159.03841"
           height="118.1557"
           x="275.61453"
           y="86.760315"
           ry="37.890427"
           inkscape:label="tab" /><path
           id="path6"
           style="fill:#ea7600;fill-opacity:1;fill-rule:evenodd;stroke-width:1.42124"
           d="m 139.92361,124.74634 h 294.72938 c 0,0 0.37014,143.708 0.37014,207.4147 0,34.87251 -28.07425,62.94676 -62.94674,62.94676 H 139.92361 c -34.87249,0 -62.946745,-28.07425 -62.946745,-62.94676 V 187.69309 c 0,-34.87249 28.074255,-62.94675 62.946745,-62.94675 z"
           sodipodi:nodetypes="scssssss"
           inkscape:label="folder" /></g><g
         inkscape:label="folder"
         id="g8"
         transform="matrix(0.51708023,0,0,0.51708023,1223.6711,599.56926)"><rect
           style="fill:#236192;fill-opacity:1;fill-rule:evenodd;stroke-width:1.77889"
           id="rect7"
           width="159.03841"
           height="118.1557"
           x="275.61453"
           y="86.760315"
           ry="37.890427"
           inkscape:label="tab" /><path
           id="path7"
           style="fill:#ea7600;fill-opacity:1;fill-rule:evenodd;stroke-width:1.42124"
           d="m 139.92361,124.74634 h 294.72938 c 0,0 0.37014,143.708 0.37014,207.4147 0,34.87251 -28.07425,62.94676 -62.94674,62.94676 H 139.92361 c -34.87249,0 -62.946745,-28.07425 -62.946745,-62.94676 V 187.69309 c 0,-34.87249 28.074255,-62.94675 62.946745,-62.94675 z"
           sodipodi:nodetypes="scssssss"
           inkscape:label="folder" /></g><g
         inkscape:label="folder"
         id="g9"
         transform="matrix(0.51708023,0,0,0.51708023,1223.6711,791.68884)"><rect
           style="fill:#236192;fill-opacity:1;fill-rule:evenodd;stroke-width:1.77889"
           id="rect8"
           width="159.03841"
           height="118.1557"
           x="275.61453"
           y="86.760315"
           ry="37.890427"
           inkscape:label="tab" /><path
           id="path8"
           style="fill:#ea7600;fill-opacity:1;fill-rule:evenodd;stroke-width:1.42124"
           d="m 139.92361,124.74634 h 294.72938 c 0,0 0.37014,143.708 0.37014,207.4147 0,34.87251 -28.07425,62.94676 -62.94674,62.94676 H 139.92361 c -34.87249,0 -62.946745,-28.07425 -62.946745,-62.94676 V 187.69309 c 0,-34.87249 28.074255,-62.94675 62.946745,-62.94675 z"
           sodipodi:nodetypes="scssssss"
           inkscape:label="folder" /></g><g
         inkscape:label="folder"
         id="g10"
         transform="matrix(0.29171767,0,0,0.29171767,1517.6709,603.91569)"><rect
           style="fill:#236192;fill-opacity:1;fill-rule:evenodd;stroke-width:1.77889"
           id="rect9"
           width="159.03841"
           height="118.1557"
           x="275.61453"
           y="86.760315"
           ry="37.890427"
           inkscape:label="tab" /><path
           id="path9"
           style="fill:#ea7600;fill-opacity:1;fill-rule:evenodd;stroke-width:1.42124"
           d="m 139.92361,124.74634 h 294.72938 c 0,0 0.37014,143.708 0.37014,207.4147 0,34.87251 -28.07425,62.94676 -62.94674,62.94676 H 139.92361 c -34.87249,0 -62.946745,-28.07425 -62.946745,-62.94676 V 187.69309 c 0,-34.87249 28.074255,-62.94675 62.946745,-62.94675 z"
           sodipodi:nodetypes="scssssss"
           inkscape:label="folder" /></g><g
         inkscape:label="folder"
         id="g11"
         transform="matrix(0.29171767,0,0,0.29171767,1517.6709,713.42385)"><rect
           style="fill:#236192;fill-opacity:1;fill-rule:evenodd;stroke-width:1.77889"
           id="rect10"
           width="159.03841"
           height="118.1557"
           x="275.61453"
           y="86.760315"
           ry="37.890427"
           inkscape:label="tab" /><path
           id="path10"
           style="fill:#ea7600;fill-opacity:1;fill-rule:evenodd;stroke-width:1.42124"
           d="m 139.92361,124.74634 h 294.72938 c 0,0 0.37014,143.708 0.37014,207.4147 0,34.87251 -28.07425,62.94676 -62.94674,62.94676 H 139.92361 c -34.87249,0 -62.946745,-28.07425 -62.946745,-62.94676 V 187.69309 c 0,-34.87249 28.074255,-62.94675 62.946745,-62.94675 z"
           sodipodi:nodetypes="scssssss"
           inkscape:label="folder" /></g></g><path
       style="fill:none;stroke:#ffffff;stroke-width:25;stroke-linecap:round;stroke-linejoin:miter;stroke-dasharray:none;stroke-opacity:1;marker-end:url(#RoundedArrow)"
       d="m 783.8479,710.8425 c 97.34058,0 194.68116,0 292.0217,0"
       id="path11"
       inkscape:path-effect="#path-effect11"
       inkscape:original-d="m 783.8479,710.8425 c 97.34058,0 194.68116,0 292.0217,0"
       transform="matrix(0.74252385,0,0,1,274.82757,21.133154)"
       inkscape:label="arrow" /><g
       id="g1"
       inkscape:label="structure"><rect
         style="fill:#236192;fill-opacity:1;fill-rule:evenodd"
         id="rect4"
         width="455.32339"
         height="380.39676"
         x="280.4946"
         y="550.87085"
         ry="30.05604"
         inkscape:label="bg" /><text
         xml:space="preserve"
         style="font-size:40px;line-height:1.25;font-family:Inter;-inkscape-font-specification:Inter"
         x="316.76614"
         y="625.00195"
         id="text17"
         inkscape:label="text"><tspan
           sodipodi:role="line"
           id="tspan17"
           x="316.76614"
           y="625.00195"
           style="font-style:normal;font-variant:normal;font-weight:normal;font-stretch:normal;font-family:'Fira Code';-inkscape-font-specification:'Fira Code';fill:#61afef;fill-opacity:1">*F*B*M</tspan><tspan
           sodipodi:role="line"
           x="316.76614"
           y="676.84485"
           id="tspan18"
           style="font-style:normal;font-variant:normal;font-weight:normal;font-stretch:normal;font-family:'Fira Code';-inkscape-font-specification:'Fira Code';fill:#ffffff;fill-opacity:1"><tspan
   style="fill:#5c6370;fill-opacity:1"
   id="tspan11">→</tspan> <tspan
   style="font-style:normal;font-variant:normal;font-weight:bold;font-stretch:normal;font-family:'Fira Code';-inkscape-font-specification:'Fira Code Bold';fill:#e06c75;fill-opacity:1"
   id="tspan6">Assets</tspan><tspan
   style="fill:#61afef;fill-opacity:1"
   id="tspan2">*M</tspan></tspan><tspan
           sodipodi:role="line"
           x="316.76614"
           y="728.68774"
           id="tspan19"
           style="font-style:normal;font-variant:normal;font-weight:normal;font-stretch:normal;font-family:'Fira Code';-inkscape-font-specification:'Fira Code';fill:#ffffff;fill-opacity:1">    <tspan
   style="fill:#5c6370;fill-opacity:1"
   id="tspan12">→</tspan> <tspan
   style="font-style:normal;font-variant:normal;font-weight:500;font-stretch:normal;font-family:'Fira Code';-inkscape-font-specification:'Fira Code Medium';fill:#e06c75;fill-opacity:1"
   id="tspan7">Models</tspan></tspan><tspan
           sodipodi:role="line"
           x="316.76614"
           y="780.53064"
           id="tspan20"
           style="font-style:normal;font-variant:normal;font-weight:normal;font-stretch:normal;font-family:'Fira Code';-inkscape-font-specification:'Fira Code';fill:#ffffff;fill-opacity:1">    <tspan
   style="fill:#5c6370;fill-opacity:1"
   id="tspan13">→</tspan> <tspan
   style="font-style:normal;font-variant:normal;font-weight:500;font-stretch:normal;font-family:'Fira Code';-inkscape-font-specification:'Fira Code Medium';fill:#e06c75;fill-opacity:1"
   id="tspan8">Textures</tspan></tspan><tspan
           sodipodi:role="line"
           x="316.76614"
           y="832.37354"
           id="tspan21"
           style="font-style:normal;font-variant:normal;font-weight:normal;font-stretch:normal;font-family:'Fira Code';-inkscape-font-specification:'Fira Code';fill:#ffffff;fill-opacity:1"><tspan
   style="fill:#5c6370;fill-opacity:1"
   id="tspan14">→</tspan> <tspan
   style="font-style:normal;font-variant:normal;font-weight:bold;font-stretch:normal;font-family:'Fira Code';-inkscape-font-specification:'Fira Code Bold';fill:#e06c75;fill-opacity:1"
   id="tspan9">References</tspan><tspan
   style="fill:#61afef;fill-opacity:1"
   id="tspan4">*R*M</tspan></tspan><tspan
           sodipodi:role="line"
           x="316.76614"
           y="884.21643"
           id="tspan22"
           style="font-style:normal;font-variant:normal;font-weight:normal;font-stretch:normal;font-family:'Fira Code';-inkscape-font-specification:'Fira Code';fill:#ffffff;fill-opacity:1"><tspan
   style="fill:#5c6370;fill-opacity:1"
   id="tspan15">→</tspan> <tspan
   style="font-style:normal;font-variant:normal;font-weight:bold;font-stretch:normal;font-family:'Fira Code';-inkscape-font-specification:'Fira Code Bold';fill:#e06c75;fill-opacity:1"
   id="tspan10">Rendered</tspan><tspan
   style="fill:#61afef;fill-opacity:1"
   id="tspan5">*O*M</tspan></tspan></text></g></g></svg>
