<?xml version="1.0" encoding="UTF-8" standalone="no"?>
<!-- Created with Inkscape (http://www.inkscape.org/) -->

<svg
   width="512"
   height="512"
   viewBox="0 0 512 512"
   version="1.1"
   id="svg1"
   xml:space="preserve"
   inkscape:version="1.4.2 (f4327f4, 2025-05-13)"
   sodipodi:docname="icon.svg"
   inkscape:export-filename="icon.png"
   inkscape:export-xdpi="48"
   inkscape:export-ydpi="48"
   xmlns:inkscape="http://www.inkscape.org/namespaces/inkscape"
   xmlns:sodipodi="http://sodipodi.sourceforge.net/DTD/sodipodi-0.dtd"
   xmlns="http://www.w3.org/2000/svg"
   xmlns:svg="http://www.w3.org/2000/svg"><sodipodi:namedview
     id="namedview1"
     pagecolor="#ffffff"
     bordercolor="#000000"
     borderopacity="0.25"
     inkscape:showpageshadow="2"
     inkscape:pageopacity="0.0"
     inkscape:pagecheckerboard="0"
     inkscape:deskcolor="#d1d1d1"
     inkscape:document-units="px"
     inkscape:zoom="2.195898"
     inkscape:cx="256.84253"
     inkscape:cy="125.91659"
     inkscape:window-width="2400"
     inkscape:window-height="1261"
     inkscape:window-x="2391"
     inkscape:window-y="-9"
     inkscape:window-maximized="1"
     inkscape:current-layer="layer1" /><defs
     id="defs1" /><g
     inkscape:label="icon"
     inkscape:groupmode="layer"
     id="layer1"><rect
       style="fill:#236192;fill-opacity:1;fill-rule:evenodd;stroke-width:2.54378"
       id="rect3"
       width="227.42218"
       height="168.96062"
       x="284.57782"
       y="20.468256"
       ry="54.182659"
       inkscape:label="tab" /><path
       id="rect1"
       style="fill:#ea7600;fill-opacity:1;fill-rule:evenodd;stroke-width:2.03235"
       d="m 90.012758,74.787618 421.987242,0 c 0,0 0,205.499972 0,296.599452 0,49.86709 -40.14569,90.01279 -90.01276,90.01279 H 90.012758 C 40.145697,461.39986 -5e-6,421.25416 -5e-6,371.38707 V 164.80039 c 0,-49.86706 40.145702,-90.012772 90.012763,-90.012772 z"
       sodipodi:nodetypes="scssssss"
       inkscape:label="folder" /><path
       d="m 384.53983,280.05758 c -1.51716,-10.67631 -5.21501,-20.80101 -10.99408,-30.08969 -5.03982,-8.10653 -11.50685,-15.31633 -19.22562,-21.44419 l 0.0209,-0.0192 -81.06783,-62.26482 a 2.3121771,2.3121771 0 0 0 -0.18277,-0.1453 c -2.69514,-2.06471 -6.34443,-3.20083 -10.27138,-3.20083 -3.93204,0 -7.72401,1.13864 -10.67175,3.20741 -3.16941,2.21399 -4.98111,5.15166 -5.10762,8.2786 -0.11597,2.91741 1.27576,5.72452 3.92903,7.9127 5.21739,4.11679 10.42326,8.32314 15.63616,12.53455 5.05903,4.08894 10.27193,8.29984 15.45952,12.39943 l -99.29503,-0.0675 c -11.35544,0 -19.08748,5.33234 -20.67803,14.25971 -0.69886,3.9103 0.5344,8.20976 3.29141,11.50268 2.925,3.49078 7.17184,5.41634 11.95763,5.41634 l 7.5696,0.006 c 10.45718,0 20.9604,-0.0257 31.44947,-0.0512 l 10.00271,-0.0233 -90.11873,66.67208 -0.35778,0.26163 c -5.03375,3.85819 -8.32921,9.26743 -9.04019,14.83963 -0.53896,4.22154 0.44581,8.0792 2.84909,11.16009 2.86429,3.67295 7.33632,5.69313 12.59323,5.69313 5.16433,0 10.4339,-1.95693 14.84471,-5.52008 L 205.798,291.54871 c -0.20799,1.9448 -0.46051,4.79795 -0.43167,6.86873 0.0546,3.27875 1.10727,9.8575 2.77373,15.19841 3.44319,10.97641 9.24312,21.01912 17.23781,29.83868 8.31858,9.17586 18.44987,16.45144 30.11049,21.6198 12.32755,5.45228 25.5796,8.21991 39.38946,8.21991 h 0.12799 c 13.85385,-0.0333 27.14793,-2.84507 39.51543,-8.35958 11.67981,-5.22959 21.80656,-12.53454 30.09373,-21.70885 7.98458,-8.86463 13.77642,-18.92404 17.21306,-29.89131 a 76.477446,76.477446 0 0 0 3.24683,-16.70141 c 0.42465,-5.4806 0.24188,-11.05737 -0.53483,-16.5749 z m -88.65267,52.60925 c -30.43484,0 -55.11529,-22.07779 -55.11529,-49.3138 0,-27.23301 24.68098,-49.31077 55.11529,-49.31077 30.43521,0 55.11316,22.07776 55.11316,49.31077 0.001,27.23601 -24.67795,49.3138 -55.11316,49.3138 z m 31.78397,-53.64718 c 0.4488,8.1288 -2.79802,15.67666 -8.49982,21.26403 -5.79997,5.69213 -14.07602,9.26745 -23.33076,9.26745 -9.2507,0 -17.52833,-3.57532 -23.33024,-9.26745 -5.69918,-5.58737 -8.93948,-13.13422 -8.49315,-21.25745 0.43717,-7.89604 4.28879,-14.86596 10.0902,-19.80102 5.70479,-4.8526 13.36509,-7.81304 21.73266,-7.81304 8.36876,0 16.02685,2.96147 21.73215,7.81304 5.80453,4.93506 9.65708,11.89994 10.09896,19.79444 z"
       id="path1"
       style="fill:#ffffff;fill-opacity:1;stroke-width:0.506057"
       inkscape:label="blender" /></g></svg>
